<?xml version="1.0" standalone="no"?>
<!DOCTYPE svg PUBLIC "-//W3C//DTD SVG 20010904//EN"
 "http://www.w3.org/TR/2001/REC-SVG-20010904/DTD/svg10.dtd">
<svg version="1.0" xmlns="http://www.w3.org/2000/svg"
 width="300.000000pt" height="173.000000pt" viewBox="0 0 300.000000 173.000000"
 preserveAspectRatio="xMidYMid meet">
<metadata>
Created by potrace 1.10, written by Peter Selinger 2001-2011
</metadata>
<g transform="translate(0.000000,173.000000) scale(0.100000,-0.100000)"
fill="#000000" stroke="none">
<path d="M1205 1313 c-22 -8 -53 -15 -69 -14 -34 2 -76 -23 -76 -44 0 -20 21
-19 65 2 23 11 39 13 45 7 7 -7 -22 -21 -86 -43 -53 -18 -97 -31 -98 -29 -27
58 -47 59 -101 5 -69 -68 -54 -98 32 -62 19 8 37 15 39 15 2 0 -25 -42 -60
-94 -88 -129 -97 -181 -35 -206 27 -12 37 -9 117 29 123 58 150 56 216 -13 64
-68 81 -76 153 -76 102 1 276 56 443 140 59 30 100 38 100 21 0 -5 -13 -11
-28 -14 -15 -3 -73 -38 -127 -77 -170 -122 -258 -157 -415 -167 -140 -8 -237
13 -377 83 -61 31 -116 53 -122 50 -6 -4 -11 -26 -11 -50 l0 -43 -67 15 c-41
9 -124 15 -208 16 -123 1 -147 -2 -197 -22 -64 -26 -137 -78 -162 -117 -29
-44 -11 -40 37 9 77 76 180 116 305 116 31 0 111 -7 177 -17 112 -15 122 -19
150 -49 34 -36 75 -50 190 -65 44 -6 161 -22 260 -36 222 -31 443 -34 580 -8
159 30 291 100 330 176 48 92 -21 179 -142 179 -47 0 -119 -30 -204 -85 -124
-81 -186 -113 -268 -139 -74 -23 -286 -54 -298 -43 -2 3 22 8 54 12 152 17
235 52 390 162 70 51 129 85 158 92 25 6 45 13 45 16 0 2 -12 11 -26 18 l-26
14 38 16 c22 8 95 42 164 75 235 112 422 170 502 157 35 -6 59 -24 93 -70 14
-20 14 -20 15 1 0 30 -46 72 -93 85 -88 23 -249 -25 -542 -163 -104 -49 -192
-90 -195 -90 -3 -1 -32 7 -65 18 -46 14 -90 19 -187 19 -89 0 -122 3 -110 10
17 10 208 14 227 5 6 -3 11 0 12 5 2 6 -12 18 -30 27 -71 37 -183 88 -195 88
-6 0 -12 4 -12 10 0 6 9 6 26 -1 25 -9 44 -5 32 7 -9 8 -110 34 -135 34 -13 0
-23 4 -23 9 0 19 35 21 72 3 35 -18 38 -18 38 -3 0 9 -5 22 -12 29 -17 17
-158 15 -233 -2 -33 -8 -62 -13 -64 -10 -5 4 2 7 98 36 41 13 76 28 78 34 9
27 -119 32 -182 7z m77 -30 c-69 -24 -102 -25 -102 -4 0 13 67 29 125 29 l50
0 -73 -25z m-82 -49 c0 -3 -10 -14 -22 -24 -17 -14 -20 -21 -12 -30 17 -17 48
-8 59 17 12 29 25 33 110 39 81 6 72 -9 -12 -21 -29 -4 -64 -16 -78 -27 -33
-25 -33 -65 -1 -77 13 -5 26 -17 29 -25 10 -24 26 -20 110 29 l78 46 60 -17
c33 -9 62 -21 65 -25 3 -5 -23 -9 -58 -9 -103 0 -192 -35 -186 -73 5 -33 30
-32 116 3 57 24 96 33 152 36 l75 3 -74 -9 c-74 -10 -211 -63 -211 -83 0 -5
10 -6 23 -2 57 17 109 24 190 25 90 0 236 -26 220 -40 -13 -12 -201 -90 -298
-123 -73 -25 -106 -31 -177 -32 l-88 0 -59 63 c-57 59 -62 62 -107 62 -34 0
-69 -11 -130 -41 -87 -42 -118 -44 -129 -9 -8 26 12 70 84 180 l62 95 97 37
c101 39 112 42 112 32z m-235 -35 c8 -24 11 -22 -43 -42 -64 -26 -70 -21 -27
23 44 45 61 50 70 19z m361 -12 c-10 -7 -31 -22 -46 -34 -34 -28 -40 -29 -40
-3 0 22 48 49 85 49 19 0 19 -1 1 -12z m139 3 c14 -6 2 -9 -42 -9 -36 -1 -63
3 -63 9 0 12 77 12 105 0z m-45 -27 c0 -5 -28 -23 -61 -41 -42 -23 -64 -31
-71 -24 -17 17 -1 42 34 57 35 15 98 20 98 8z m65 -98 c-108 -37 -125 -41
-125 -24 0 21 113 56 190 58 26 1 9 -8 -65 -34z m642 -166 c82 -31 98 -101 37
-169 -61 -67 -154 -109 -299 -136 -104 -18 -358 -18 -495 1 -58 8 -166 22
-240 30 -156 18 -228 36 -261 65 -21 19 -22 20 -4 16 215 -56 565 -70 708 -28
93 26 146 53 264 128 153 99 219 120 290 93z m-1230 -124 c72 -43 155 -72 253
-91 l75 -14 -65 6 c-36 3 -123 16 -194 30 -71 13 -130 24 -132 24 -2 0 -4 18
-4 40 0 22 2 40 4 40 3 0 31 -16 63 -35z"/>
</g>
</svg>
