<?xml version="1.0" encoding="utf-8"?>
<svg version="1.0" xmlns="http://www.w3.org/2000/svg" width="300.000000pt" height="173.000000pt" viewBox="0 0 300.000000 173.000000" preserveAspectRatio="xMidYMid meet">
  <defs>
    <path id="path-0" d="M 73.892 109.402 C 75.909 114.116 78.183 117.854 81.145 119.829 C 82.897 120.591 84.117 121.726 85.905 122.322 C 90.012 122.549 92.966 126.629 96.558 126.629 C 99.069 127.37 101.772 127.989 103.811 127.989 C 106.232 127.989 108.238 128.215 110.385 128.215 C 113.798 128.669 116.023 128.895 118.318 128.895 C 120.891 128.895 122.953 129.122 125.118 129.122 C 128.606 129.122 131.518 130.255 134.411 130.255 C 137.353 130.255 139.368 130.482 141.437 130.482 C 144.157 130.482 146.197 130.482 148.237 130.482 C 151.428 130.482 153.889 130.935 156.17 130.935 C 159.885 131.637 163.251 131.162 166.143 131.162 C 169.543 131.162 172.263 131.162 174.983 131.162 C 179.437 131.162 182.752 131.389 186.09 131.389 C 188.432 131.389 190.321 131.389 192.21 131.389 C 194.93 131.389 197.423 131.389 199.916 131.389 C 202.649 131.389 204.983 130.935 206.489 130.935 C 208.556 130.015 209.763 128.341 211.249 126.855 C 213.703 124.401 216.346 122.493 218.956 121.189 C 220.604 119.939 223.515 117.109 224.849 117.109 L 225.076 116.882 C 225.334 116.107 225.48 114.891 225.982 114.389" style="fill: none;"/>
  </defs>
  <g transform="translate(0.000000,173.000000) scale(0.100000,-0.100000)" fill="#000000" stroke="none">
    <path d="M 1205 1313 C 1183 1305 1152 1298 1136 1299 C 1102 1301 1060 1276 1060 1255 C 1060 1235 1081 1236 1125 1257 C 1148 1268 1164 1270 1170 1264 C 1177 1257 1148 1243 1084 1221 C 1031 1203 987 1190 986 1192 C 959 1250 939 1251 885 1197 C 816 1129 831 1099 917 1135 C 936 1143 954 1150 956 1150 C 958 1150 931 1108 896 1056 C 808 927 799 875 861 850 C 888 838 898 841 978 879 C 1101 937 1128 935 1194 866 C 1258 798 1275 790 1347 790 C 1449 791 1623 846 1790 930 C 1849 960 1890 968 1890 951 C 1890 946 1877 940 1862 937 C 1847 934 1789 899 1735 860 C 1565 738 1477 703 1320 693 C 1180 685 1083 706 943 776 C 882 807 827 829 821 826 C 815 822 810 800 810 776 L 810 733 L 740.714 739.312 C 678.681 751.513 660.606 750.264 576.147 755.641 C 471.95 762.275 644.336 653.351 680.591 629.501 C 731.765 595.837 788.323 569.479 828.479 533.473 C 848.092 515.887 786.317 545.284 761.943 562.449 C 673.488 624.744 456.905 742.692 581.905 742.692 C 612.905 742.692 629 743 695 733 C 807 718 817 714 845 684 C 879 648 920 634 1035 619 C 1079 613 1196 597 1295 583 C 1517 552 1738 549 1875 575 C 2034 605 2166 675 2205 751 C 2253 843 2184 930 2063 930 C 2016 930 1944 900 1859 845 C 1735 764 1673 732 1591 706 C 1517 683 1305 652 1293 663 C 1291 666 1315 671 1347 675 C 1499 692 1582 727 1737 837 C 1807 888 1866 922 1895 929 C 1920 935 1940 942 1940 945 C 1940 947 1928 956 1914 963 L 1888 977 L 1926 993 C 1948 1001 2021 1035 2090 1068 C 2325 1180 2512 1238 2592 1225 C 2627 1219 2651 1201 2685 1155 C 2699 1135 2699 1135 2700 1156 C 2700 1186 2654 1228 2607 1241 C 2519 1264 2358 1216 2065 1078 C 1961 1029 1873 988 1870 988 C 1867 987 1838 995 1805 1006 C 1759 1020 1715 1025 1618 1025 C 1529 1025 1496 1028 1508 1035 C 1525 1045 1716 1049 1735 1040 C 1741 1037 1746 1040 1747 1045 C 1749 1051 1735 1063 1717 1072 C 1646 1109 1534 1160 1522 1160 C 1516 1160 1510 1164 1510 1170 C 1510 1176 1519 1176 1536 1169 C 1561 1160 1580 1164 1568 1176 C 1559 1184 1458 1210 1433 1210 C 1420 1210 1410 1214 1410 1219 C 1410 1238 1445 1240 1482 1222 C 1517 1204 1520 1204 1520 1219 C 1520 1228 1515 1241 1508 1248 C 1491 1265 1350 1263 1275 1246 C 1242 1238 1213 1233 1211 1236 C 1206 1240 1213 1243 1309 1272 C 1350 1285 1385 1300 1387 1306 C 1396 1333 1268 1338 1205 1313 Z M 1282 1283 C 1213 1259 1180 1258 1180 1279 C 1180 1292 1247 1308 1305 1308 L 1355 1308 L 1282 1283 Z M 1200 1234 C 1200 1231 1190 1220 1178 1210 C 1161 1196 1158 1189 1166 1180 C 1183 1163 1214 1172 1225 1197 C 1237 1226 1250 1230 1335 1236 C 1416 1242 1407 1227 1323 1215 C 1294 1211 1259 1199 1245 1188 C 1212 1163 1212 1123 1244 1111 C 1257 1106 1270 1094 1273 1086 C 1283 1062 1299 1066 1383 1115 L 1461 1161 L 1521 1144 C 1554 1135 1583 1123 1586 1119 C 1589 1114 1563 1110 1528 1110 C 1425 1110 1336 1075 1342 1037 C 1347 1004 1372 1005 1458 1040 C 1515 1064 1554 1073 1610 1076 L 1685 1079 L 1611 1070 C 1537 1060 1400 1007 1400 987 C 1400 982 1410 981 1423 985 C 1480 1002 1532 1009 1613 1010 C 1703 1010 1849 984 1833 970 C 1820 958 1632 880 1535 847 C 1462 822 1429 816 1358 815 L 1270 815 L 1211 878 C 1154 937 1149 940 1104 940 C 1070 940 1035 929 974 899 C 887 857 856 855 845 890 C 837 916 857 960 929 1070 L 991 1165 L 1088 1202 C 1189 1241 1200 1244 1200 1234 Z M 965 1199 C 973 1175 976 1177 922 1157 C 858 1131 852 1136 895 1180 C 939 1225 956 1230 965 1199 Z M 1326 1187 C 1316 1180 1295 1165 1280 1153 C 1246 1125 1240 1124 1240 1150 C 1240 1172 1288 1199 1325 1199 C 1344 1199 1344 1198 1326 1187 Z M 1465 1190 C 1479 1184 1467 1181 1423 1181 C 1387 1180 1360 1184 1360 1190 C 1360 1202 1437 1202 1465 1190 Z M 1420 1163 C 1420 1158 1392 1140 1359 1122 C 1317 1099 1295 1091 1288 1098 C 1271 1115 1287 1140 1322 1155 C 1357 1170 1420 1175 1420 1163 Z M 1485 1065 C 1377 1028 1360 1024 1360 1041 C 1360 1062 1473 1097 1550 1099 C 1576 1100 1559 1091 1485 1065 Z M 2127 899 C 2209 868 2225 798 2164 730 C 2103 663 2010 621 1865 594 C 1761 576 1507 576 1370 595 C 1312 603 1204 617 1130 625 C 974 643 902 661 869 690 C 848 709 847 710 865 706 C 1080 650 1430 636 1573 678 C 1666 704 1719 731 1837 806 C 1990 905 2056 926 2127 899 Z M 897 775 C 969 732 1052 703 1150 684 L 1225 670 L 1160 676 C 1124 679 1037 692 966 706 C 895 719 836 730 834 730 C 832 730 830 748 830 770 C 830 792 832 810 834 810 C 837 810 865 794 897 775 Z"/>
  </g>
  <text style="font-family: &quot;Segoe Script&quot;; font-size: 22px; letter-spacing: 8.1px; word-spacing: 2.1px; white-space: pre;" transform="matrix(1, 0, 0, 1, -10.012604, 3.418446)"><textPath href="#path-0" startOffset="16">taketwo</textPath></text>
  <path style="stroke: rgb(0, 0, 0); paint-order: stroke;" d="M 89.009 122.421 L 91.149 122.963 C 94.023 122.963 95.867 121.017 94.9 122.233"/>
  <path style="fill: rgb(216, 216, 216); stroke: rgb(0, 0, 0);" d="M 88.813 122.297 C 88.813 122.297 92.017 122.71 92.017 122.742 C 92.017 122.774 94.676 122.376 94.676 122.376 L 95.187 121.865 C 95.187 121.865 92.081 123.191 91.768 123.262 C 91.455 123.333 88.561 122.536 88.8 122.44 C 89.039 122.344 89.215 122.634 89.215 122.634 C 92.003 123.456 88.766 122.48 88.765 122.48 L 88.279 122.292 L 88.318 122.265 C 88.318 122.265 87.89 122.013 87.89 121.997 C 87.89 121.981 90.145 122.863 90.145 122.863 L 93.222 122.664"/>
  <path style="stroke: rgb(0, 0, 0); fill: rgba(255, 255, 255, 0);" d="M 105.55 125.765 C 105.55 125.765 106.113 124.874 106.916 124.008 C 107.588 123.282 107.491 125.718 109.646 126.462 C 111.221 127.006 111.543 126.925 113.658 124.63 C 115.885 122.213 116.894 118.921 116.903 118.921"/>
  <path style="stroke: rgb(0, 0, 0); fill: rgba(0, 0, 0, 0);" d="M 127.603 129.963 C 127.702 129.963 130.458 126.052 133.09 125.747 C 135.8 125.433 138.385 128.725 138.324 128.704"/>
  <path style="stroke: rgb(0, 0, 0); fill: rgba(216, 216, 216, 0);" d="M 147.585 129.363 C 149.222 127.769 150.919 126.599 151.558 127.294 C 153.46 129.362 152.069 134.183 152.919 134.244 C 153.974 134.319 156.601 127.705 158.718 126.849 C 161.655 125.662 165.065 126.145 166.963 125.443 C 169.526 124.495 166.445 131.338 167.474 133.415 C 169.201 136.9 172.937 127.918 173.81 126.309"/>
  <path style="stroke: rgb(0, 0, 0); fill: rgba(216, 216, 216, 0);" d="M 193.524 126.717 C 193.524 126.717 194.258 126.269 194.762 125.467 C 195.856 123.726 196.095 122.943 196.095 122.943"/>
  <text style="fill: rgb(51, 51, 51); font-family: Calibri; font-size: 28px; text-transform: capitalize; white-space: pre;" transform="matrix(0.357858, 0, 0, 0.391823, 87.838312, 86.432077)" y="157.406" x="20.393">SHOE CLEANING EXPERT</text>
  <text style="fill: rgb(51, 51, 51); font-family: Calibri; font-size: 12.7609px; font-style: italic; font-weight: 700; text-transform: uppercase; white-space: pre;" transform="matrix(0.357858, 0, 0, 0.391823, 127.773485, 94.57171)" x="20.393" y="157.406">SINCE 2019</text>
</svg>